<svg xmlns="http://www.w3.org/2000/svg" xmlns:xlink="http://www.w3.org/1999/xlink" viewBox="0,0,256,256" width="46px" height="34px" fill-rule="nonzero"><g fill="#ffffff" fill-rule="nonzero" stroke="none" stroke-width="1" stroke-linecap="butt" stroke-linejoin="miter" stroke-miterlimit="10" stroke-dasharray="" stroke-dashoffset="0" font-family="none" font-weight="none" font-size="none" text-anchor="none" style="mix-blend-mode: normal"><g transform="scale(3.55556,3.55556)"><path d="M36,12c13.255,0 24,10.745 24,24c0,13.255 -10.745,24 -24,24c-4.248,0 -8.235,-1.108 -11.697,-3.044l-12.069,2.7l3.071,-11.505c-2.097,-3.565 -3.305,-7.716 -3.305,-12.151c0,-13.255 10.745,-24 24,-24zM45.919,43.256c0.421,-1.169 0.421,-2.17 0.29,-2.382c-0.128,-0.203 -0.46,-0.328 -0.968,-0.579c-0.508,-0.251 -2.996,-1.464 -3.463,-1.629c-0.46,-0.165 -0.801,-0.251 -1.133,0.251c-0.341,0.502 -1.307,1.63 -1.608,1.958c-0.292,0.337 -0.585,0.376 -1.093,0.125c-0.508,-0.251 -2.14,-0.776 -4.073,-2.483c-1.504,-1.323 -2.518,-2.96 -2.811,-3.461c-0.293,-0.501 -0.032,-0.775 0.221,-1.026c0.23,-0.219 0.508,-0.579 0.761,-0.869c0.245,-0.298 0.332,-0.502 0.499,-0.839c0.175,-0.328 0.087,-0.626 -0.039,-0.877c-0.126,-0.251 -1.109,-2.725 -1.561,-3.712c-0.379,-0.83 -0.777,-0.854 -1.141,-0.862c-0.295,-0.015 -0.636,-0.015 -0.968,-0.015c-0.341,0 -0.888,0.124 -1.354,0.626c-0.458,0.502 -1.766,1.709 -1.766,4.176c0,2.458 1.807,4.84 2.061,5.168c0.254,0.337 3.501,5.552 8.651,7.557c4.27,1.661 5.142,1.332 6.077,1.246c0.93,-0.079 2.997,-1.207 3.418,-2.373z"></path></g></g></svg>